# xmcd
#
# Track frame offsets:
# 150
# 14460
# 28805
# 45556
# 59638
# 72553
# 86126
# 104934
# 125732
# 139599
# 159790
# 175060
#
# Disc length: 2513 seconds
#
# Revision: 0
# Processed by: cddbd v1.5.1PL0 Copyright (c) Steve Scherf et al.
# Submitted via: Audion 3.0.2 (http://www.panic.com/audion/)
#
DISCID=af09cf0c
DTITLE=Ricos y Pobres - Lo Mejor
DYEAR=1900
DGENRE=
TTITLE0=1
TTITLE1=2
TTITLE2=3
TTITLE3=4
TTITLE4=5
TTITLE5=6
TTITLE6=7
TTITLE7=8
TTITLE8=9
TTITLE9=0
TTITLE10=11
TTITLE11=12
EXTD=
EXTT0=
EXTT1=
EXTT2=
EXTT3=
EXTT4=
EXTT5=
EXTT6=
EXTT7=
EXTT8=
EXTT9=
EXTT10=
EXTT11=
PLAYORDER=
